<svg fill="#4D4D4D" xmlns="http://www.w3.org/2000/svg"  viewBox="0 0 24 24" width="50px" height="50px"><path d="M 10.058594 1 L 9.7675781 3.3378906 C 8.162745 3.7535109 6.7462962 4.5912377 5.6210938 5.7363281 L 3.4453125 4.8183594 L 1.5039062 8.1796875 L 3.3808594 9.6015625 C 3.1657721 10.370375 3 11.162048 3 12 C 3 12.837196 3.1661001 13.628831 3.3808594 14.396484 L 1.5039062 15.818359 L 3.4453125 19.181641 L 5.6191406 18.263672 C 6.7439155 19.410243 8.1613 20.247156 9.7675781 20.662109 L 10.058594 23 L 13.941406 23 L 14.232422 20.662109 C 15.837255 20.246489 17.253704 19.408762 18.378906 18.263672 L 20.554688 19.181641 L 22.496094 15.820312 L 20.619141 14.396484 C 20.8339 13.628831 21 12.837196 21 12 C 21 11.162804 20.8339 10.371169 20.619141 9.6035156 L 22.496094 8.1816406 L 20.554688 4.8183594 L 18.380859 5.7363281 C 17.256084 4.5897571 15.8387 3.7528437 14.232422 3.3378906 L 13.941406 1 L 10.058594 1 z M 10.941406 2 L 13.058594 2 L 13.320312 4.1035156 L 13.669922 4.1777344 C 15.346482 4.533169 16.822657 5.4178401 17.931641 6.6464844 L 18.169922 6.9101562 L 20.130859 6.0839844 L 21.189453 7.9160156 L 19.498047 9.1972656 L 19.609375 9.5351562 C 19.861844 10.312348 20 11.138916 20 12 C 20 12.861084 19.861844 13.687652 19.609375 14.464844 L 19.498047 14.802734 L 19.78125 15.017578 L 21.189453 16.083984 L 20.130859 17.917969 L 18.169922 17.089844 L 17.931641 17.353516 C 16.821541 18.58141 15.345654 19.465867 13.669922 19.822266 L 13.320312 19.896484 L 13.058594 22 L 10.941406 22 L 10.679688 19.896484 L 10.330078 19.822266 C 8.6535177 19.466833 7.1773428 18.58216 6.0683594 17.353516 L 5.8300781 17.089844 L 3.8691406 17.916016 L 2.8105469 16.083984 L 4.5019531 14.802734 L 4.390625 14.464844 C 4.1381555 13.687652 4 12.861084 4 12 C 4 11.138916 4.1380844 10.313509 4.390625 9.5351562 L 4.5019531 9.1953125 L 2.8105469 7.9160156 L 3.8691406 6.0820312 L 5.8300781 6.9101562 L 6.0683594 6.6464844 C 7.1784586 5.4185903 8.6543463 4.534133 10.330078 4.1777344 L 10.679688 4.1035156 L 10.941406 2 z M 12 8 C 10.708334 8 9.6769226 8.5023777 9.0019531 9.2617188 C 8.3269837 10.02106 8 11.013889 8 12 C 8 12.986111 8.3269837 13.97894 9.0019531 14.738281 C 9.6769226 15.497622 10.708334 16 12 16 C 13.291666 16 14.323077 15.497622 14.998047 14.738281 C 15.673016 13.97894 16 12.986111 16 12 C 16 11.013889 15.673016 10.02106 14.998047 9.2617188 C 14.323077 8.5023777 13.291666 8 12 8 z M 12 9 C 13.041666 9 13.760256 9.3726223 14.251953 9.9257812 C 14.74365 10.47894 15 11.236111 15 12 C 15 12.763889 14.74365 13.52106 14.251953 14.074219 C 13.760256 14.627378 13.041666 15 12 15 C 10.958334 15 10.239744 14.627378 9.7480469 14.074219 C 9.2563502 13.52106 9 12.763889 9 12 C 9 11.236111 9.2563502 10.47894 9.7480469 9.9257812 C 10.239744 9.3726223 10.958334 9 12 9 z"/></svg>