<svg fill="#1f3fed" xmlns="http://www.w3.org/2000/svg"  viewBox="0 0 24 24" width="50px" height="50px"><path d="M21,12c0-0.82-0.113-1.637-0.337-2.431l1.834-1.388l-1.941-3.363l-2.127,0.897c-1.163-1.193-2.604-2.028-4.202-2.435	L13.941,1h-3.883L9.773,3.281C8.175,3.687,6.734,4.522,5.571,5.715L3.444,4.818L1.503,8.181l1.834,1.388C3.113,10.363,3,11.18,3,12	s0.113,1.637,0.337,2.431l-1.833,1.388l1.939,3.362l2.128-0.897c1.163,1.194,2.604,2.029,4.202,2.435L10.059,23h3.883l0.285-2.281	c1.599-0.406,3.039-1.241,4.202-2.435l2.128,0.897l1.939-3.362l-1.833-1.388C20.887,13.637,21,12.82,21,12z M12,15.5	c-1.933,0-3.5-1.567-3.5-3.5s1.567-3.5,3.5-3.5s3.5,1.567,3.5,3.5S13.933,15.5,12,15.5z"/></svg>